<svg width="275" height="7" viewBox="0 0 275 7" fill="none" xmlns="http://www.w3.org/2000/svg">
<g clip-path="url(#clip0_8_4)">
<path d="M4.08099 5.34959C5.08583 5.34959 5.66883 5.33537 5.82999 5.30217C5.99114 5.27371 6.06698 5.14566 6.06698 4.93225C6.06698 4.67141 5.95322 4.51016 5.73045 4.44377C5.50768 4.37737 4.95786 4.34417 4.07625 4.34417C2.32725 4.34417 1.22762 4.21612 0.772592 3.96477C0.322308 3.70393 0.0900567 3.07791 0.0900567 2.07724C0.0900567 1.15244 0.388666 0.559621 0.985884 0.29878C1.44565 0.0995935 2.45997 0 4.02885 0C5.43184 0 6.31819 0.0379404 6.69263 0.118564C7.5695 0.294038 8.01031 1.04336 8.01031 2.36179H5.92478C5.92478 2.00136 5.84421 1.78794 5.68779 1.73103C5.53138 1.67412 4.98156 1.64092 4.03833 1.64092C3.09511 1.64092 2.55003 1.65989 2.40309 1.69309C2.2609 1.72629 2.18506 1.85434 2.18506 2.07724C2.18506 2.31436 2.3083 2.46612 2.55477 2.53726C2.80124 2.6084 3.3084 2.6416 4.08099 2.6416C5.80629 2.6416 6.91541 2.77913 7.41309 3.04946C7.91077 3.31978 8.15724 3.95054 8.15724 4.93225C8.15724 5.84282 7.87759 6.42141 7.32303 6.67751C6.83957 6.89566 5.75415 7.00474 4.07151 7.00474C2.7728 7.00474 1.92911 6.97629 1.54044 6.91463C0.943225 6.82453 0.5356 6.61585 0.322308 6.29336C0.109016 5.96138 0 5.39702 0 4.58604H2.095C2.095 4.96545 2.17558 5.18835 2.34147 5.25474C2.50263 5.3164 3.08563 5.34959 4.08099 5.34959Z" fill="black"/>
<path d="M12.3093 1.84011V0.0806236H20.405V1.84011H17.4094V6.88144H15.3096V1.84011H12.3093Z" fill="black"/>
<path d="M24.4528 0.0806236H30.5387C31.2876 0.0806236 31.8137 0.218157 32.1265 0.488483C32.4631 0.787263 32.629 1.30894 32.629 2.05827C32.629 2.6416 32.5579 3.07317 32.4204 3.34824C32.283 3.62805 32.0365 3.83672 31.6905 3.97426C32.0697 4.14024 32.3161 4.30623 32.4441 4.47222C32.5673 4.63821 32.629 4.93225 32.629 5.35434V6.87669H30.5387V5.65786C30.5387 5.48239 30.4913 5.33062 30.3965 5.21206C30.2733 5.05081 30.0932 4.97019 29.8514 4.97019H26.543V6.87669H24.448V0.0806236H24.4528ZM26.5478 1.84011V3.22019H29.9036C30.1311 3.22019 30.2922 3.17276 30.3918 3.07317C30.4913 2.97358 30.5387 2.79336 30.5387 2.53252C30.5387 2.27168 30.4866 2.09146 30.387 1.99187C30.2828 1.89228 30.1263 1.84011 29.9036 1.84011H26.5478V1.84011Z" fill="black"/>
<path d="M37.037 6.88144V0.0806236H44.36V1.72629H39.132V2.67005H44.123V4.30623H39.132V5.24052H44.36V6.88618H37.037V6.88144Z" fill="black"/>
<path d="M48.5216 6.88144V0.0806236H55.8446V1.72629H50.6166V2.67005H55.6076V4.30623H50.6166V5.24052H55.8446V6.88618H48.5216V6.88144Z" fill="black"/>
<path d="M60.0868 1.84011V0.0806236H68.1824V1.84011H65.1868V6.88144H63.0918V1.84011H60.0868Z" fill="black"/>
<path d="M85.8193 0.090107L83.184 6.88143H79.9798L78.8186 2.71274C78.8186 2.70325 78.8044 2.53726 78.7807 2.22425C78.7522 1.91125 78.719 1.75474 78.6764 1.75474C78.6385 1.75474 78.61 1.91125 78.5816 2.22425C78.5531 2.53726 78.5389 2.70325 78.5342 2.71274L77.3824 6.88143H74.1783L71.5477 0.090107H73.7801L75.6666 5.11246H75.8941L77.4345 0.090107H79.9324L81.4729 5.11246H81.7004L83.5868 0.090107H85.8193V0.090107Z" fill="black"/>
<path d="M89.085 6.88144V0.0806236H96.4081V1.72629H91.18V2.67005H96.1711V4.30623H91.18V5.24052H96.4081V6.88618H89.085V6.88144Z" fill="black"/>
<path d="M103.399 0.090107H106.992L110.357 6.88143H107.916L107.272 5.74797H103.124L102.475 6.88143H100.034L103.399 0.090107ZM105.362 1.61721H105.035L103.906 3.98848H106.485L105.362 1.61721Z" fill="black"/>
<path d="M113.87 0.0806236H119.956C120.704 0.0806236 121.231 0.218157 121.543 0.488483C121.88 0.787263 122.046 1.30894 122.046 2.05827C122.046 2.6416 121.975 3.07317 121.837 3.34824C121.7 3.62805 121.453 3.83672 121.107 3.97426C121.486 4.14024 121.733 4.30623 121.861 4.47222C121.984 4.63821 122.046 4.93225 122.046 5.35434V6.87669H119.956V5.65786C119.956 5.48239 119.908 5.33062 119.813 5.21206C119.69 5.05081 119.51 4.97019 119.268 4.97019H115.96V6.87669H113.865V0.0806236H113.87ZM115.96 1.84011V3.22019H119.316C119.543 3.22019 119.704 3.17276 119.804 3.07317C119.903 2.97358 119.951 2.79336 119.951 2.53252C119.951 2.27168 119.899 2.09146 119.799 1.99187C119.695 1.89228 119.538 1.84011 119.316 1.84011H115.96V1.84011Z" fill="black"/>
<path d="M139.697 0.0806236C140.351 0.0806236 140.825 0.175475 141.124 0.365176C141.564 0.649729 141.787 1.19512 141.787 2.00136C141.787 2.35705 141.721 2.65583 141.588 2.8977C141.455 3.13957 141.289 3.30081 141.095 3.39092C141.721 3.67073 142.034 4.20664 142.034 4.99865C142.034 5.68631 141.872 6.1748 141.55 6.45935C141.228 6.7439 140.692 6.88618 139.943 6.88618H133.616V0.0806236H139.697ZM135.711 2.63686H139.417C139.583 2.63686 139.711 2.59892 139.806 2.52304C139.896 2.44715 139.943 2.33333 139.943 2.17683C139.943 2.01084 139.901 1.89702 139.811 1.82588C139.725 1.75474 139.593 1.72155 139.417 1.72155H135.711V2.63686V2.63686ZM135.711 5.23577H139.332C139.735 5.23577 139.939 5.06504 139.939 4.71884C139.939 4.50068 139.887 4.35366 139.782 4.27304C139.678 4.19241 139.526 4.15447 139.332 4.15447H135.711V5.23577Z" fill="black"/>
<path d="M145.693 0.0806236H151.779C152.528 0.0806236 153.054 0.218157 153.367 0.488483C153.703 0.787263 153.869 1.30894 153.869 2.05827C153.869 2.6416 153.798 3.07317 153.66 3.34824C153.523 3.62805 153.277 3.83672 152.931 3.97426C153.31 4.14024 153.556 4.30623 153.684 4.47222C153.807 4.63821 153.869 4.93225 153.869 5.35434V6.87669H151.779V5.65786C151.779 5.48239 151.731 5.33062 151.637 5.21206C151.513 5.05081 151.333 4.97019 151.091 4.97019H147.783V6.87669H145.688V0.0806236H145.693ZM147.788 1.84011V3.22019H151.144C151.371 3.22019 151.532 3.17276 151.632 3.07317C151.731 2.97358 151.779 2.79336 151.779 2.53252C151.779 2.27168 151.727 2.09146 151.627 1.99187C151.523 1.89228 151.366 1.84011 151.144 1.84011H147.788V1.84011Z" fill="black"/>
<path d="M161.102 0.090107H164.695L168.06 6.88143H165.619L164.974 5.74797H160.827L160.178 6.88143H157.737L161.102 0.090107ZM163.064 1.61721H162.737L161.609 3.98848H164.188L163.064 1.61721Z" fill="black"/>
<path d="M181.023 6.89092H177.601L174.018 1.85908C173.98 1.7832 173.942 1.70258 173.9 1.61721C173.857 1.53184 173.814 1.48916 173.772 1.48916C173.772 1.55081 173.776 1.61721 173.781 1.67886C173.89 2.02033 173.942 2.1958 173.942 2.20054V6.89567H171.847V0.0948524H175.269L178.848 5.11721C178.886 5.20258 178.928 5.2832 178.966 5.36382C179.004 5.44445 179.052 5.48713 179.099 5.48713C179.094 5.42548 179.09 5.36382 179.09 5.29743C179.037 5.1267 178.985 4.95122 178.938 4.771V0.0948524H181.028V6.89092H181.023Z" fill="black"/>
<path d="M185.147 6.87195V0.0806236H191.01C192.2 0.0806236 192.987 0.317751 193.366 0.792006C193.721 1.23781 193.902 2.13889 193.902 3.48577C193.902 4.83266 193.726 5.71951 193.38 6.15583C193.001 6.63482 192.209 6.87195 191.01 6.87195H185.147ZM187.242 5.11247H190.655C191.105 5.11247 191.408 4.99865 191.57 4.771C191.731 4.54336 191.807 4.11653 191.807 3.48577C191.807 2.85027 191.726 2.4187 191.57 2.18631C191.408 1.95393 191.105 1.84011 190.655 1.84011H187.242V5.11247Z" fill="black"/>
<path d="M205.476 0.090107H207.571V5.12195H212.316V6.88143H205.476V0.090107Z" fill="black"/>
<path d="M215.814 6.89092V0.0948524H217.909V6.89092H215.814Z" fill="black"/>
<path d="M225.417 0.0948524L227.204 3.90786C227.223 3.95054 227.246 4.09756 227.275 4.34892C227.303 4.60027 227.336 4.72358 227.365 4.72358C227.388 4.72358 227.412 4.6477 227.436 4.50068C227.455 4.35366 227.488 4.15447 227.526 3.90786L229.313 0.0948524H232.882V6.89092H230.787V2.14363C230.787 2.05827 230.801 1.95867 230.834 1.84011C230.867 1.72155 230.882 1.64567 230.882 1.62195C230.882 1.57453 230.863 1.54607 230.82 1.54607C230.796 1.54607 230.763 1.58401 230.725 1.65515C230.687 1.72629 230.654 1.79743 230.63 1.86382L228.218 6.89567H226.502L223.895 1.84485C223.857 1.75949 223.824 1.68835 223.791 1.62195C223.758 1.5603 223.729 1.5271 223.701 1.5271C223.663 1.5271 223.644 1.55081 223.644 1.5935C223.644 1.59824 223.668 1.70732 223.71 1.91125C223.734 2.00136 223.743 2.07249 223.743 2.12941V6.89567H221.648V0.0948524H225.417Z" fill="black"/>
<path d="M236.835 6.89092V0.0948524H238.93V6.89092H236.835Z" fill="black"/>
<path d="M242.774 1.84011V0.0806236H250.87V1.84011H247.874V6.88144H245.779V1.84011H242.774Z" fill="black"/>
<path d="M254.932 6.88144V0.0806236H262.255V1.72629H257.027V2.67005H262.018V4.30623H257.027V5.24052H262.255V6.88618H254.932V6.88144Z" fill="black"/>
<path d="M266.25 6.87195V0.0806236H272.113C273.303 0.0806236 274.09 0.317751 274.469 0.792006C274.825 1.23781 275.005 2.13889 275.005 3.48577C275.005 4.83266 274.829 5.71951 274.483 6.15583C274.104 6.63482 273.313 6.87195 272.113 6.87195H266.25ZM268.345 5.11247H271.758C272.208 5.11247 272.512 4.99865 272.673 4.771C272.834 4.54336 272.91 4.11653 272.91 3.48577C272.91 2.85027 272.829 2.4187 272.673 2.18631C272.512 1.95393 272.208 1.84011 271.758 1.84011H268.345V5.11247Z" fill="black"/>
</g>
<defs>
<clipPath id="clip0_8_4">
<rect width="275" height="7" fill="white"/>
</clipPath>
</defs>
</svg>
